<svg width="360" height="128" viewBox="0 0 360 128" fill="none" xmlns="http://www.w3.org/2000/svg">
<path d="M0 33.063H31.6693V86.601H44.1862V101.919H0V86.601H12.5169V48.381H0V33.063ZM20.5096 0C23.7268 0 26.3408 1.011 28.3516 3.033C30.3623 5.056 31.3677 7.684 31.3677 10.92C31.3677 14.155 30.3623 16.784 28.3516 18.807C26.3408 20.728 23.7268 21.688 20.5096 21.688C17.2924 21.688 14.6785 20.728 12.6677 18.807C10.7575 16.784 9.8024 14.155 9.8024 10.92C9.8024 7.684 10.7575 5.056 12.6677 3.033C14.6785 1.011 17.2924 0 20.5096 0Z" fill="url(#paint0_linear_101_2)"/>
<path d="M51.7795 8.645H83.5996V60.515H93.5528L100.641 48.381H93.1004V33.063H131.104V48.381H120.095L106.824 67.795L120.095 86.601H132.461V101.919H110.896L94.3069 75.681H83.5996V86.601H87.973V101.919H51.7795V86.601H64.4473V19.262H51.7795V8.645Z" fill="url(#paint1_linear_101_2)"/>
<path d="M156.644 100.554C151.316 97.622 147.244 93.376 144.429 87.815C141.714 82.152 140.357 75.428 140.357 67.643C140.357 59.756 141.714 53.033 144.429 47.471C147.244 41.809 151.316 37.512 156.644 34.58C159.814 32.809 163.361 31.555 167.285 30.818V47.855C165.804 48.73 164.519 49.866 163.43 51.263C160.515 55.004 159.057 60.464 159.057 67.643C159.057 74.822 160.515 80.282 163.43 84.023C164.519 85.42 165.804 86.556 167.285 87.431V104.191C163.361 103.479 159.814 102.267 156.644 100.554Z" fill="url(#paint2_linear_101_2)"/>
<path d="M178.23 121H200V10.92H178.23V121Z" fill="#AB73E7"/>
<path d="M351.94 69.11C351.71 69.22 351.48 69.36 351.25 69.5C351.24 68.04 350.47 67.33 349.93 66.56C347.33 62.84 342.31 64.25 340.83 67.67C340.63 68.14 343.89 72.39 343.75 72.85C341.59 73.82 339.51 76.05 339.09 78C339.52 75.99 338.02 75.05 335.75 75.8C333.48 76.55 331.33 78.71 331.02 80.71C331.34 78.71 329.72 77.62 327.4 78.18C325.08 78.74 323.01 80.73 322.8 82.72C323.01 80.73 321.27 79.48 318.93 79.83C316.59 80.18 314.59 82 314.49 83.98C314.58 81.99 312.74 80.58 310.38 80.71C308.02 80.84 306.11 82.48 306.13 84.47C306.11 82.49 304.17 80.89 301.81 80.81C299.45 80.73 297.63 82.18 297.76 84.17C297.63 82.18 295.59 80.41 293.25 80.11C290.9 79.81 289.19 81.09 289.43 83.08C289.19 81.09 287.07 79.14 284.75 78.63C282.43 78.12 280.83 79.24 281.18 81.24C280.83 79.25 278.64 77.13 276.35 76.42C274.06 75.72 272.58 76.69 273.05 78.69C272.59 76.69 267.54 68.24 266.99 66.99C265.51 63.57 262.66 62.49 260.22 64.71C259.22 65.62 258.6 67.27 259.11 69.7C257.52 69.26 256.73 70.03 257.31 71.72C260.48 80.98 263.61 90.4 266.21 99.87C267.32 103.92 268.47 109.17 271.73 112.19C274.07 114.35 276.99 115.85 279.8 117.06C288.19 120.66 297.5 121.76 306.17 121.82C315.45 121.88 327.25 119.64 335.46 114.97C338.57 113.21 341.53 111.16 342.92 107.71C345.21 101.99 346.87 95.99 348.62 90.25C350.61 83.73 352.11 76.81 354.69 70.72C355.33 68.72 354.11 68.03 351.94 69.11Z" fill="#48A2AD"/>
<path d="M305.86 95.4C330.718 95.4 350.87 87.3008 350.87 77.31C350.87 67.3192 330.718 59.22 305.86 59.22C281.002 59.22 260.85 67.3192 260.85 77.31C260.85 87.3008 281.002 95.4 305.86 95.4Z" fill="url(#paint3_radial_101_2)"/>
<path d="M344.08 51.48C343.24 50.63 342.21 49.83 340.98 49.13C340.98 49.13 312.3 58.46 292.34 57.45C272.38 56.44 275.32 54.26 265.18 60.72C265.18 60.72 262.41 64.68 265.79 67.09C270.21 70.24 275.79 72.84 281.91 74.82C282.65 74.28 283.39 73.94 284.02 73.94C303.05 67.33 340.07 75.71 344.08 51.48Z" fill="url(#paint4_linear_101_2)"/>
<path d="M344.08 51.48C340.07 75.71 303.05 67.33 284.03 73.94C283.4 73.94 282.66 74.27 281.92 74.82C297.27 79.78 316.05 80.79 328.59 76.62C344.34 71.4 351.45 58.95 344.08 51.48Z" fill="#EB5E8E"/>
<path d="M335.95 33.63C335.95 33.63 341.38 36.85 341.38 45.18C341.38 53.51 334.45 64.31 303.7 61.22C273.22 58.15 265.35 60.75 265.35 60.75C265.35 60.75 256.01 48.07 275.53 48.14C293 48.2 318.98 50.26 325.1 46.38C334.21 40.58 334.55 40.42 335.95 33.63Z" fill="url(#paint5_linear_101_2)"/>
<path d="M300.45 27.44C309.91 21.53 309.4 12.94 304.89 5.63C304.4 5.91 304.11 6.5 304.36 7.11C305.35 9.49 306.23 12.85 304.63 15.11C301.92 18.93 296.9 19.9 288.69 24.48C280.86 28.84 277.85 33 277.3 38.22C277.25 38.71 277.53 39.18 277.99 39.41C278.87 39.85 280.55 40.57 283.09 41.23C285.85 34.4 294.16 30.58 300.45 27.44Z" fill="#F77CA5"/>
<path d="M321.09 16.45C316.86 11.89 311.86 8.17 306.07 5.57C305.65 5.38 305.22 5.44 304.88 5.63C309.39 12.93 309.9 21.52 300.44 27.44C294.16 30.58 285.85 34.4 283.08 41.23C285.84 41.95 289.62 42.6 294.54 42.75C306.6 43.11 322.85 42.45 325.61 37.72C328.38 33 326.07 21.82 321.09 16.45Z" fill="url(#paint6_linear_101_2)"/>
<path d="M335.1 32C335.33 31.42 335.5 30.82 335.62 30.22C332.38 25.26 324.8 23.74 324.8 23.74C333.02 41.24 290.24 37.43 278.12 38.15C272.96 38.46 270 40.73 268.29 43.25C270.82 41.93 273.78 41.2 276.75 40.21C295.89 35.65 326.89 54.8 335.1 32Z" fill="#F79EBC"/>
<path d="M336.82 32.96C336.584 31.9833 336.178 31.0558 335.62 30.22C335.5 30.83 335.33 31.42 335.1 32C326.89 54.8 295.89 35.65 276.74 40.21C273.78 41.2 270.81 41.92 268.28 43.25C265.97 46.64 265.96 50.46 265.96 50.46C278.43 46.68 287.63 50.48 311.6 50.83C335.57 51.16 338.54 40.12 336.82 32.96Z" fill="url(#paint7_linear_101_2)"/>
<path d="M351.96 76.04C349.77 77.06 347.48 79.4 346.91 81.35C347.49 79.4 346.14 78.57 343.9 79.4C341.65 80.23 339.41 82.38 338.94 84.29C339.41 82.38 337.93 81.43 335.64 82.07C333.35 82.71 331.16 84.68 330.81 86.56C331.17 84.68 329.57 83.6 327.25 84.05C324.93 84.5 322.81 86.3 322.57 88.16C322.82 86.3 321.1 85.08 318.76 85.34C316.41 85.6 314.38 87.24 314.25 89.08C314.38 87.24 312.57 85.87 310.21 85.94C307.85 86.01 305.91 87.49 305.89 89.33C305.91 87.49 304 85.97 301.64 85.85C299.29 85.73 297.44 87.06 297.54 88.91C297.45 87.06 295.45 85.39 293.1 85.08C290.76 84.77 289.02 85.96 289.23 87.82C289.02 85.96 286.95 84.11 284.63 83.62C282.31 83.13 280.7 84.17 281.01 86.06C280.69 84.17 278.55 82.16 276.27 81.47C273.99 80.78 272.5 81.71 272.93 83.63C272.5 81.71 270.3 79.51 268.07 78.64C265.84 77.77 264.48 78.57 265.02 80.53C264.48 78.57 262.24 76.18 260.07 75.12C257.9 74.06 256.68 74.75 257.32 76.76C259.9 82.82 261.41 89.61 263.4 95.89C265.16 101.42 266.82 107.15 269.12 112.48C270.51 115.7 273.45 117.4 276.59 118.82C285.58 122.87 296.08 123.92 305.82 124.01C314.62 124.1 323.74 123.33 332.13 120.54C334.95 119.6 337.87 118.43 340.21 116.56C343.48 113.95 344.63 108.96 345.75 105.1C348.42 95.86 351.57 86.85 354.67 77.75C355.35 75.73 354.15 75.02 351.96 76.04Z" fill="url(#paint8_linear_101_2)"/>
<path d="M278.75 51.25C279.855 51.25 280.75 50.3546 280.75 49.25C280.75 48.1454 279.855 47.25 278.75 47.25C277.645 47.25 276.75 48.1454 276.75 49.25C276.75 50.3546 277.645 51.25 278.75 51.25Z" fill="#B8EB96"/>
<path d="M291.75 58.5C292.855 58.5 293.75 57.6046 293.75 56.5C293.75 55.3954 292.855 54.5 291.75 54.5C290.645 54.5 289.75 55.3954 289.75 56.5C289.75 57.6046 290.645 58.5 291.75 58.5Z" fill="#EBD3DB"/>
<path d="M279.25 66C280.355 66 281.25 65.1046 281.25 64C281.25 62.8954 280.355 62 279.25 62C278.145 62 277.25 62.8954 277.25 64C277.25 65.1046 278.145 66 279.25 66Z" fill="#EB5E8E"/>
<path d="M294 36.5C295.105 36.5 296 35.6046 296 34.5C296 33.3954 295.105 32.5 294 32.5C292.895 32.5 292 33.3954 292 34.5C292 35.6046 292.895 36.5 294 36.5Z" fill="#3DC2EB"/>
<path d="M304.75 50.25C305.855 50.25 306.75 49.3546 306.75 48.25C306.75 47.1454 305.855 46.25 304.75 46.25C303.645 46.25 302.75 47.1454 302.75 48.25C302.75 49.3546 303.645 50.25 304.75 50.25Z" fill="#FFA600"/>
<path d="M337.5 65.25C338.605 65.25 339.5 64.3546 339.5 63.25C339.5 62.1454 338.605 61.25 337.5 61.25C336.395 61.25 335.5 62.1454 335.5 63.25C335.5 64.3546 336.395 65.25 337.5 65.25Z" fill="#79EB2D"/>
<path d="M313 29.25C314.105 29.25 315 28.3546 315 27.25C315 26.1454 314.105 25.25 313 25.25C311.895 25.25 311 26.1454 311 27.25C311 28.3546 311.895 29.25 313 29.25Z" fill="#FFF000"/>
<path d="M323.5 52.5C324.605 52.5 325.5 51.6046 325.5 50.5C325.5 49.3954 324.605 48.5 323.5 48.5C322.395 48.5 321.5 49.3954 321.5 50.5C321.5 51.6046 322.395 52.5 323.5 52.5Z" fill="#8052FF"/>
<path d="M328.5 37.5C329.605 37.5 330.5 36.6046 330.5 35.5C330.5 34.3954 329.605 33.5 328.5 33.5C327.395 33.5 326.5 34.3954 326.5 35.5C326.5 36.6046 327.395 37.5 328.5 37.5Z" fill="#5EEBB3"/>
<path d="M314.25 67.75C315.355 67.75 316.25 66.8546 316.25 65.75C316.25 64.6454 315.355 63.75 314.25 63.75C313.145 63.75 312.25 64.6454 312.25 65.75C312.25 66.8546 313.145 67.75 314.25 67.75Z" fill="#A45EEB"/>
<path opacity="0.56" d="M270.5 85.5L276.5 111.25" stroke="#49A5B0" stroke-width="3" stroke-miterlimit="10" stroke-linecap="round" stroke-linejoin="round"/>
<path opacity="0.56" d="M341.5 85.58L335.5 111.5" stroke="#49A5B0" stroke-width="3" stroke-miterlimit="10" stroke-linecap="round" stroke-linejoin="round"/>
<path opacity="0.56" d="M282.96 89.58L286.46 115.08" stroke="#49A5B0" stroke-width="3" stroke-miterlimit="10" stroke-linecap="round" stroke-linejoin="round"/>
<path opacity="0.56" d="M329.04 88.67L325.54 114.17" stroke="#49A5B0" stroke-width="3" stroke-miterlimit="10" stroke-linecap="round" stroke-linejoin="round"/>
<path opacity="0.56" d="M293.83 91L296.17 117.17" stroke="#49A5B0" stroke-width="3" stroke-miterlimit="10" stroke-linecap="round" stroke-linejoin="round"/>
<path opacity="0.56" d="M318.17 90.08L315.83 116.25" stroke="#49A5B0" stroke-width="3" stroke-miterlimit="10" stroke-linecap="round" stroke-linejoin="round"/>
<path opacity="0.56" d="M306.17 92.67L306.5 117.83" stroke="#49A5B0" stroke-width="3" stroke-miterlimit="10" stroke-linecap="round" stroke-linejoin="round"/>
<path opacity="0.2" d="M308.35 10.09C312.21 12.29 315.75 15.1 318.89 18.5C320.27 19.99 321.54 22.24 322.44 24.84C322.77 25.8 323.57 26.52 324.55 26.76C325.59 27.02 330.9 28.48 333.11 31.86C333.49 32.45 333.75 33.04 333.9 33.66C333.99 34.05 334.07 34.48 334.13 34.92C334.22 35.62 334.56 36.27 335.08 36.75C336.31 37.88 338.38 40.48 338.39 45.18C338.39 46.28 338.24 47.34 337.94 48.34C337.63 49.41 337.92 50.56 338.72 51.33C339.11 51.71 339.58 51.97 340.09 52.1C340.79 52.55 341.42 53.05 341.95 53.6C345.08 56.77 344.07 60.43 342.67 62.95C342.12 63.93 342.17 65.14 342.8 66.07C343.36 66.91 344.3 67.4 345.29 67.4C345.4 67.4 345.52 67.39 345.64 67.38C345.72 67.37 345.81 67.37 345.89 67.37C346.53 67.37 347.05 67.67 347.48 68.28C347.6 68.45 347.72 68.61 347.85 68.78C348.26 69.32 348.26 69.36 348.27 69.54C348.28 70.62 348.88 71.62 349.83 72.14C350.14 72.31 350.47 72.42 350.81 72.47C350.55 73.2 350.28 73.97 350.01 74.78C349.66 75.83 349.92 76.99 350.69 77.79C350.88 77.99 351.09 78.16 351.32 78.3L350.64 80.29C347.98 88.09 345.22 96.15 342.87 104.26C342.76 104.62 342.66 105 342.55 105.38C341.61 108.69 340.55 112.45 338.34 114.21C336.27 115.86 333.56 116.89 331.19 117.68C324.46 119.92 316.6 121 307.16 121C306.73 121 306.29 121 305.86 120.99C293.93 120.87 285.02 119.3 277.83 116.06C274.94 114.76 272.82 113.44 271.88 111.27C270.03 107 268.58 102.35 267.17 97.84C266.87 96.88 266.57 95.91 266.26 94.96C265.61 92.92 265 90.76 264.4 88.68C263.26 84.68 262.09 80.56 260.52 76.65C260.61 76.56 260.69 76.46 260.76 76.35C261.32 75.57 261.46 74.56 261.15 73.65L260.76 72.51C260.73 72.43 260.71 72.35 260.68 72.27C260.86 72.16 261.03 72.03 261.18 71.89C261.553 71.5351 261.83 71.0908 261.984 70.5991C262.138 70.1074 262.164 69.5846 262.06 69.08C261.82 67.94 261.98 67.18 262.26 66.93C262.56 66.66 262.79 66.56 262.9 66.56C262.91 66.56 262.95 66.56 263.01 66.59C263.455 66.7717 263.938 66.8429 264.417 66.7976C264.896 66.7523 265.357 66.5919 265.76 66.33C266.58 65.8 267.09 64.91 267.13 63.93C267.15 63.48 267.36 62.98 267.52 62.67C267.88 62.27 268.13 61.78 268.24 61.24C268.4 60.44 268.23 59.6 267.75 58.93C266.94 57.77 265.85 55.52 266.18 54.03C266.27 53.61 266.5 53.06 267.48 52.5C268.34 52.01 268.9 51.13 268.98 50.14C269.05 49.25 269.37 46.96 270.76 44.92C272.21 42.79 274.52 41.54 277.61 41.21C278.302 41.1386 278.948 40.8278 279.435 40.3312C279.923 39.8346 280.221 39.1834 280.28 38.49V38.43C280.65 35.18 282.14 31.55 290.14 27.09C292.92 25.54 295.32 24.42 297.44 23.43C301.58 21.5 304.85 19.97 307.07 16.84C308.35 15.05 308.77 12.76 308.35 10.09ZM305.54 5.45C305.3 5.45 305.08 5.52 304.88 5.63C304.39 5.91 304.1 6.5 304.35 7.11C305.34 9.49 306.22 12.85 304.62 15.11C301.91 18.93 296.89 19.9 288.68 24.48C280.86 28.84 277.85 33 277.3 38.22V38.24C272.65 38.73 269.9 40.87 268.28 43.25C266.5 45.87 266.09 48.74 265.99 49.91C260.29 53.18 264.76 59.9 265.29 60.66C265.25 60.68 265.22 60.71 265.18 60.73C265.18 60.73 264.19 62.15 264.12 63.81C263.72 63.65 263.31 63.57 262.89 63.57C262 63.57 261.09 63.94 260.23 64.73C259.23 65.64 258.61 67.29 259.12 69.72C258.82 69.64 258.56 69.6 258.32 69.6C257.28 69.6 256.85 70.36 257.32 71.74C257.65 72.7 257.97 73.67 258.3 74.63C257.3 74.64 256.87 75.38 257.3 76.75C259.88 82.81 261.39 89.6 263.38 95.88C265.14 101.41 266.8 107.14 269.1 112.47C270.49 115.69 273.43 117.39 276.57 118.81C285.56 122.86 296.06 123.91 305.8 124C306.24 124 306.69 124.01 307.13 124.01C315.51 124.01 324.14 123.18 332.11 120.54C334.93 119.6 337.85 118.43 340.19 116.56C343.46 113.95 344.61 108.96 345.73 105.1C348.4 95.86 351.55 86.85 354.65 77.75C355.12 76.37 354.68 75.6 353.64 75.6C353.4 75.6 353.13 75.64 352.83 75.72C353.39 74.02 353.99 72.36 354.67 70.75C355.11 69.37 354.68 68.61 353.67 68.61C353.2 68.61 352.61 68.77 351.93 69.11C351.7 69.22 351.47 69.36 351.24 69.5C351.23 68.04 350.46 67.33 349.92 66.56C348.84 65.02 347.35 64.37 345.87 64.37C345.67 64.37 345.47 64.38 345.27 64.4C347.8 59.85 347.62 55.09 344.07 51.49C343.23 50.64 342.2 49.84 340.97 49.14L340.8 49.19C341.2 47.83 341.37 46.48 341.37 45.18C341.37 39.32 338.68 36 337.09 34.54C337.02 34 336.93 33.47 336.8 32.96C336.564 31.9833 336.158 31.0558 335.6 30.22C332.84 26 326.95 24.27 325.26 23.85C324.27 21.02 322.85 18.37 321.08 16.46C316.85 11.9 311.85 8.18 306.06 5.58C305.9 5.49 305.72 5.45 305.54 5.45Z" fill="#424242"/>
<defs>
<linearGradient id="paint0_linear_101_2" x1="167.69" y1="60.334" x2="0.262878" y2="60.334" gradientUnits="userSpaceOnUse">
<stop stop-color="#563A74"/>
<stop offset="1" stop-color="#AB73E7"/>
</linearGradient>
<linearGradient id="paint1_linear_101_2" x1="167.69" y1="60.334" x2="0.262885" y2="60.334" gradientUnits="userSpaceOnUse">
<stop stop-color="#563A74"/>
<stop offset="1" stop-color="#AB73E7"/>
</linearGradient>
<linearGradient id="paint2_linear_101_2" x1="167.69" y1="60.334" x2="0.262817" y2="60.334" gradientUnits="userSpaceOnUse">
<stop stop-color="#563A74"/>
<stop offset="1" stop-color="#AB73E7"/>
</linearGradient>
<radialGradient id="paint3_radial_101_2" cx="0" cy="0" r="1" gradientUnits="userSpaceOnUse" gradientTransform="translate(305.667 67.667) rotate(90) scale(26.685 41.7834)">
<stop stop-color="#BE5D23"/>
<stop offset="0.158" stop-color="#B65B25"/>
<stop offset="0.407" stop-color="#9F552A"/>
<stop offset="0.715" stop-color="#7A4C33"/>
<stop offset="0.999" stop-color="#52423C"/>
</radialGradient>
<linearGradient id="paint4_linear_101_2" x1="264.114" y1="61.979" x2="344.08" y2="61.979" gradientUnits="userSpaceOnUse">
<stop stop-color="#FF85AE"/>
<stop offset="0.317" stop-color="#FF7DA9"/>
<stop offset="0.816" stop-color="#FF669A"/>
<stop offset="1" stop-color="#FF5C93"/>
</linearGradient>
<linearGradient id="paint5_linear_101_2" x1="263.117" y1="47.691" x2="341.384" y2="47.691" gradientUnits="userSpaceOnUse">
<stop offset="0.003" stop-color="#FFB0CB"/>
<stop offset="0.792" stop-color="#F383A9"/>
<stop offset="1" stop-color="#F0769F"/>
</linearGradient>
<linearGradient id="paint6_linear_101_2" x1="297.086" y1="24.14" x2="329.012" y2="24.14" gradientUnits="userSpaceOnUse">
<stop stop-color="#F697B7"/>
<stop offset="0.335" stop-color="#F78FB2"/>
<stop offset="0.862" stop-color="#F878A3"/>
<stop offset="1" stop-color="#F9719F"/>
</linearGradient>
<linearGradient id="paint7_linear_101_2" x1="265.961" y1="40.522" x2="337.222" y2="40.522" gradientUnits="userSpaceOnUse">
<stop stop-color="#F78FB2"/>
<stop offset="0.272" stop-color="#F887AD"/>
<stop offset="0.703" stop-color="#FC709F"/>
<stop offset="1" stop-color="#FF5C93"/>
</linearGradient>
<linearGradient id="paint8_linear_101_2" x1="306" y1="83" x2="306" y2="119.62" gradientUnits="userSpaceOnUse">
<stop stop-color="#4FE8FF"/>
<stop offset="0.497" stop-color="#4BDDF3"/>
<stop offset="1" stop-color="#45CEE3"/>
</linearGradient>
</defs>
</svg>
