<svg width="355" height="121" viewBox="0 0 355 121" fill="none" xmlns="http://www.w3.org/2000/svg">
<path d="M0 33.0632H31.6693V86.6012H44.1862V101.919H0V86.6012H12.5169V48.3814H0V33.0632ZM20.5096 0C23.7268 0 26.3408 1.01111 28.3516 3.03332C30.3623 5.05553 31.3677 7.68441 31.3677 10.9199C31.3677 14.1555 30.3623 16.7844 28.3516 18.8066C26.3408 20.7277 23.7268 21.6882 20.5096 21.6882C17.2924 21.6882 14.6785 20.7277 12.6677 18.8066C10.7575 16.7844 9.8024 14.1555 9.8024 10.9199C9.8024 7.68441 10.7575 5.05553 12.6677 3.03332C14.6785 1.01111 17.2924 0 20.5096 0Z" fill="url(#paint0_linear_25_8)"/>
<path d="M51.7795 8.64495L83.5996 8.64496V60.5147H93.5528L100.641 48.3814H93.1004V33.0632H131.104V48.3814H120.095L106.824 67.7946L120.095 86.6012H132.461V101.919H110.896L94.3069 75.6813H83.5996V86.6012H87.973V101.919H51.7795V86.6012H64.4473V19.2616H51.7795V8.64495Z" fill="url(#paint1_linear_25_8)"/>
<path d="M156.644 100.554C151.316 97.6223 147.244 93.3756 144.429 87.8145C141.714 82.1524 140.357 75.4285 140.357 67.643C140.357 59.7564 141.714 53.0325 144.429 47.4714C147.244 41.8092 151.316 37.512 156.644 34.5798C159.814 32.8087 163.361 31.5547 167.285 30.8177V47.8549C165.804 48.7302 164.519 49.8662 163.43 51.2631C160.515 55.0042 159.057 60.4641 159.057 67.643C159.057 74.8218 160.515 80.2818 163.43 84.0229C164.519 85.4197 165.804 86.5558 167.285 87.4311V104.191C163.361 103.479 159.814 102.267 156.644 100.554Z" fill="url(#paint2_linear_25_8)"/>
<path d="M178.23 121H200V10.9199H178.23V121Z" fill="#AB73E7"/>
<path d="M355 60.7661C355 32.1766 331.943 9 303.501 9C275.057 9 252 32.1766 252 60.7661C252 89.355 275.057 112.532 303.5 112.532C331.943 112.532 355 89.355 355 60.7661Z" fill="#339AF0"/>
<path d="M293.91 36.3433C293.449 36.9704 293.183 37.7196 293.145 38.4974C293.107 39.2751 293.299 40.0467 293.697 40.7158C293.961 41.1581 294.311 41.5437 294.725 41.8502C300.723 46.3192 304.167 53.1524 304.167 60.6003C304.167 68.0483 300.723 74.8814 294.725 79.3505C294.311 79.6572 293.962 80.0427 293.698 80.4849C293.163 81.381 293.004 82.4529 293.258 83.4657C293.383 83.9675 293.604 84.4394 293.91 84.8542C294.216 85.2691 294.601 85.6195 295.042 85.8852C295.484 86.1509 295.973 86.3267 296.483 86.4025C296.993 86.4783 297.512 86.4526 298.012 86.3268C298.512 86.2011 298.981 85.9778 299.394 85.6697C301.242 84.2925 302.934 82.7186 304.442 80.9759H315.553C317.717 80.9759 319.475 79.2152 319.475 77.0416C319.475 74.8681 317.72 73.1074 315.553 73.1074H309.421C311.135 69.1612 312.015 64.9034 312.006 60.601C312.016 56.2981 311.135 52.0399 309.421 48.0932H315.557C317.72 48.0932 319.478 46.3332 319.478 44.159C319.478 41.9855 317.724 40.2254 315.557 40.2254H304.449C302.94 38.481 301.247 36.9056 299.398 35.5271C298.985 35.2195 298.516 34.9964 298.017 34.8707C297.518 34.7451 296.999 34.7192 296.49 34.7947C295.46 34.9494 294.534 35.5064 293.914 36.3433H293.91Z" fill="white"/>
<path fill-rule="evenodd" clip-rule="evenodd" d="M287.719 59.4265C287.701 58.6436 287.837 57.8648 288.121 57.1348C288.404 56.4069 288.828 55.7425 289.37 55.1804C289.91 54.6207 290.557 54.1751 291.272 53.8701C291.985 53.5662 292.752 53.4095 293.528 53.4095C294.303 53.4095 295.07 53.5662 295.784 53.8701C296.499 54.1751 297.146 54.6207 297.686 55.1804C298.228 55.7425 298.653 56.4069 298.935 57.1348C299.219 57.8648 299.355 58.6437 299.335 59.4265C299.3 60.956 298.673 62.4122 297.586 63.4884C296.505 64.5573 295.048 65.1575 293.528 65.1589C292.008 65.1578 290.55 64.5576 289.469 63.4884C288.382 62.4122 287.755 60.956 287.719 59.4265Z" fill="white"/>
<defs>
<linearGradient id="paint0_linear_25_8" x1="167.69" y1="60.3337" x2="0.262876" y2="60.3337" gradientUnits="userSpaceOnUse">
<stop stop-color="#563A74"/>
<stop offset="1" stop-color="#AB73E7"/>
</linearGradient>
<linearGradient id="paint1_linear_25_8" x1="167.69" y1="60.3337" x2="0.262876" y2="60.3337" gradientUnits="userSpaceOnUse">
<stop stop-color="#563A74"/>
<stop offset="1" stop-color="#AB73E7"/>
</linearGradient>
<linearGradient id="paint2_linear_25_8" x1="167.69" y1="60.3337" x2="0.262876" y2="60.3337" gradientUnits="userSpaceOnUse">
<stop stop-color="#563A74"/>
<stop offset="1" stop-color="#AB73E7"/>
</linearGradient>
</defs>
</svg>
