<svg width="615" height="346" viewBox="0 0 615 346" fill="none" xmlns="http://www.w3.org/2000/svg">
<path d="M0 142.063H31.6693V195.601H44.1862V210.919H0V195.601H12.5169V157.381H0V142.063ZM20.5096 109C23.7268 109 26.3408 110.011 28.3516 112.033C30.3623 114.056 31.3677 116.684 31.3677 119.92C31.3677 123.155 30.3623 125.784 28.3516 127.807C26.3408 129.728 23.7268 130.688 20.5096 130.688C17.2924 130.688 14.6785 129.728 12.6677 127.807C10.7575 125.784 9.8024 123.155 9.8024 119.92C9.8024 116.684 10.7575 114.056 12.6677 112.033C14.6785 110.011 17.2924 109 20.5096 109Z" fill="url(#paint0_linear_25_8)"/>
<path d="M51.7795 117.645L83.5996 117.645V169.515H93.5528L100.641 157.381H93.1004V142.063H131.104V157.381H120.095L106.824 176.795L120.095 195.601H132.461V210.919H110.896L94.3069 184.681H83.5996V195.601H87.973V210.919H51.7795V195.601H64.4473V128.262H51.7795V117.645Z" fill="url(#paint1_linear_25_8)"/>
<path d="M156.644 209.554C151.316 206.622 147.244 202.376 144.429 196.815C141.714 191.152 140.357 184.428 140.357 176.643C140.357 168.756 141.714 162.033 144.429 156.471C147.244 150.809 151.316 146.512 156.644 143.58C159.814 141.809 163.361 140.555 167.285 139.818V156.855C165.804 157.73 164.519 158.866 163.43 160.263C160.515 164.004 159.057 169.464 159.057 176.643C159.057 183.822 160.515 189.282 163.43 193.023C164.519 194.42 165.804 195.556 167.285 196.431V213.191C163.361 212.479 159.814 211.267 156.644 209.554Z" fill="url(#paint2_linear_25_8)"/>
<path d="M178.23 230H200V119.92H178.23V230Z" fill="#AB73E7"/>
<g clip-path="url(#clip0_25_8)">
<path d="M297.612 139.769C301.724 139.769 305.051 140.33 307.578 141.456C310.104 142.579 311.366 143.98 311.366 145.667C311.366 147.728 310.847 150.064 309.821 152.683C308.79 155.304 307.807 157.453 306.873 159.138C306.497 159.513 306.032 159.559 305.471 159.279C304.909 158.997 304.627 158.485 304.627 157.735C305.19 156.429 305.471 154.556 305.471 152.12C305.471 149.503 304.769 147.348 303.365 145.666C301.962 143.981 300.041 143.141 297.612 143.141C294.427 143.141 291.858 144.122 289.893 146.087C287.929 148.051 286.946 150.814 286.946 154.363C286.946 157.361 287.739 160.215 289.331 162.925C290.974 165.725 292.754 168.442 294.664 171.067C296.672 173.848 298.5 176.754 300.138 179.768C301.822 182.857 302.664 186.364 302.664 190.294C302.664 197.027 299.95 202.266 294.525 206.007C289.097 209.755 281.986 211.622 273.195 211.622C266.832 211.622 261.827 210.594 258.178 208.535C254.527 206.479 252.705 204.236 252.705 201.8C252.705 201.056 252.984 200.023 253.546 198.712C254.107 197.406 254.853 196.004 255.793 194.501C256.759 192.96 257.79 191.462 258.882 190.009C260.003 188.514 261.217 187.3 262.529 186.364C263.09 185.989 263.605 186.079 264.074 186.642C264.539 187.204 264.588 187.765 264.216 188.327C263.092 189.447 262.252 190.62 261.688 191.836C261.126 193.051 260.846 194.692 260.846 196.747C260.846 200.113 261.969 202.878 264.216 205.023C266.461 207.178 269.359 208.253 272.915 208.253C277.779 208.253 281.568 206.896 284.283 204.183C286.994 201.474 288.353 198.149 288.353 194.218C288.353 190.665 287.556 187.343 285.966 184.256C284.381 181.181 282.648 178.183 280.775 175.274C278.917 172.402 277.184 169.451 275.581 166.43C274.004 163.497 273.184 160.217 273.196 156.887C273.196 152.027 275.252 147.954 279.371 144.682C283.482 141.415 289.564 139.769 297.612 139.769ZM374.233 141.177C375.169 141.551 375.544 142.069 375.359 142.722C375.168 143.379 374.328 143.891 372.831 144.265C370.024 144.265 366.798 144.361 363.149 144.544C359.498 144.731 355.613 145.015 351.501 145.385C347.753 154.558 344.667 163.488 342.237 172.191C339.802 180.89 338.59 187.955 338.59 193.382C338.59 199.741 341.018 202.92 345.885 202.92C350.749 202.92 356.176 198.713 362.168 190.295C362.727 189.919 363.241 189.919 363.708 190.295C364.174 190.669 364.315 191.322 364.132 192.259C360.96 197.485 356.871 202.097 352.062 205.872C347.194 209.709 342.423 211.623 337.748 211.623C332.878 211.623 329.278 210.461 326.941 208.115C324.6 205.776 323.432 202.55 323.432 198.431C323.432 193.009 324.739 185.521 327.36 175.978C329.98 166.436 333.348 156.711 337.467 146.789C332.598 147.35 328.108 148.106 323.995 149.036C323.056 148.855 322.821 148.384 323.292 147.633C323.757 146.888 324.599 146.088 325.818 145.248C327.031 144.403 328.484 143.658 330.167 143C331.85 142.348 333.441 142.019 334.939 142.019H337.185C337.932 142.019 338.682 141.927 339.431 141.74C341.806 136.429 344.333 131.187 347.008 126.021C349.627 120.967 352.245 116.387 354.868 112.267C355.988 110.959 357.534 109.79 359.498 108.757C361.462 107.734 363.38 106.935 365.251 106.372C367.12 105.811 368.664 105.486 369.885 105.39C371.098 105.299 371.61 105.628 371.43 106.372C368.244 111.242 365.115 116.665 362.025 122.652C358.857 128.813 355.908 135.085 353.184 141.456C356.737 141.272 360.342 141.177 363.989 141.177H374.233Z" fill="#606060"/>
<path d="M544.525 0.748657C547.332 0.748657 549.62 1.45195 551.403 2.85427C553.176 4.25659 554.393 6.12967 555.05 8.46924C555.705 10.8074 555.795 13.4745 555.33 16.4677C554.862 19.4638 553.788 22.457 552.103 25.4488C551.727 25.8232 551.261 25.8232 550.699 25.4488C550.139 25.0731 549.763 24.608 549.578 24.0451C549.951 21.7991 549.158 19.9303 547.191 18.4316C545.227 16.9371 542.183 16.1856 538.069 16.1856C530.395 16.1856 522.677 19.0398 514.914 24.747C507.148 30.4569 499.616 37.9904 492.32 47.3401C485.022 56.6984 478.19 67.4604 471.83 79.6191C465.472 91.7694 459.939 104.334 455.269 117.228C450.592 130.138 446.893 142.956 444.183 155.679C441.47 168.407 440.116 180.004 440.116 190.485C440.116 196.094 441.704 198.903 444.888 198.903C447.132 198.903 449.33 197.967 451.481 196.094C453.631 194.225 456.115 191.421 458.921 187.675C459.481 187.306 459.996 187.351 460.463 187.816C460.929 188.289 461.069 188.894 460.887 189.638C457.139 195.253 452.746 199.931 447.692 203.672C442.642 207.418 438.053 209.287 433.939 209.287C430.383 209.287 427.906 208.257 426.504 206.197C425.101 204.141 424.398 201.525 424.398 198.342C424.398 189.546 426.265 178.55 430.013 165.364C433.754 152.171 438.755 138.233 445.029 123.542C451.297 108.855 458.547 94.2138 466.781 79.6191C475.014 65.0244 483.575 51.8817 492.465 40.1867C501.35 28.4931 510.289 18.9959 519.269 11.6964C528.244 4.39555 536.664 0.748657 544.527 0.748657H544.525ZM295.319 345.632C292.511 345.632 290.221 344.931 288.44 343.528C286.665 342.126 285.448 340.253 284.792 337.913C284.14 335.572 284.046 332.908 284.511 329.915C284.982 326.919 286.055 323.927 287.738 320.934C288.116 320.557 288.581 320.557 289.142 320.934C289.702 321.305 290.078 321.775 290.264 322.337C289.892 324.583 290.685 326.452 292.65 327.951C294.614 329.444 297.657 330.194 301.772 330.194C309.446 330.194 317.165 327.34 324.927 321.633C332.694 315.928 340.227 308.396 347.524 299.044C354.821 289.686 361.653 278.926 368.014 266.765C374.372 254.614 379.903 242.049 384.571 229.155C389.251 216.244 392.949 203.428 395.66 190.703C398.373 177.977 399.727 166.379 399.727 155.9C399.727 150.285 398.139 147.481 394.955 147.481C392.709 147.481 390.511 148.412 388.362 150.285C386.212 152.153 383.728 154.965 380.922 158.708C380.362 159.077 379.848 159.031 379.38 158.566C378.915 158.095 378.775 157.487 378.958 156.738C382.704 151.129 387.097 146.447 392.151 142.705C397.201 138.965 401.788 137.096 405.903 137.096C409.46 137.096 411.937 138.12 413.339 140.18C414.743 142.24 415.446 144.859 415.446 148.042C415.446 156.836 413.577 167.827 409.831 181.02C406.091 194.213 401.088 208.149 394.815 222.841C388.547 237.527 381.296 252.169 373.063 266.763C364.829 281.358 356.269 294.501 347.38 306.196C338.495 317.889 329.556 327.388 320.574 334.683C311.597 341.983 303.177 345.632 295.319 345.632Z" fill="#B3D107"/>
<path d="M484.921 211.622C477.061 211.622 473.132 207.319 473.132 198.712C473.132 195.72 473.455 192.257 474.113 188.33C474.767 184.396 475.8 180.333 477.201 176.12C478.605 171.907 480.239 167.655 482.112 163.346C483.984 159.038 486.239 154.906 488.849 151C486.833 152.281 484.868 153.638 482.957 155.07C481.171 156.398 479.483 157.851 477.903 159.418C477.342 159.798 476.826 159.657 476.359 158.999C475.891 158.345 475.844 157.737 476.219 157.175C479.399 153.805 483.938 150.348 489.833 146.787C495.724 143.238 501.383 140.428 506.814 138.369C507.749 138.369 508.449 138.606 508.919 139.073C509.384 139.543 509.433 140.15 509.06 140.895C503.098 148.708 498.234 157.302 494.604 166.436C490.956 175.607 489.131 184.497 489.131 193.1C489.131 198.53 490.818 201.238 494.184 201.238C496.613 201.238 499.608 199.602 503.164 196.328C506.719 193.053 510.464 188.751 514.395 183.415C518.323 178.084 522.296 172.049 526.323 165.315C530.31 158.646 534.009 151.808 537.411 144.822C537.97 143.703 539.609 142.579 542.32 141.456C545.033 140.33 547.794 139.769 550.601 139.769C553.409 139.769 554.25 140.523 553.128 142.018C550.708 146.489 548.415 151.028 546.251 155.63C544.347 159.683 542.707 163.854 541.34 168.119C540.037 172.199 539.052 176.374 538.392 180.606C537.733 184.819 537.41 189.447 537.41 194.498C537.41 200.491 538.998 203.479 542.183 203.479C545.362 203.479 548.918 200.674 552.847 195.059C553.41 194.691 553.972 194.691 554.53 195.059C555.093 195.439 555.278 196.002 555.093 196.745C551.91 201.61 548.4 205.305 544.568 207.833C540.731 210.357 537.223 211.619 534.044 211.619C526.182 211.619 522.255 207.036 522.255 197.868C522.255 188.325 523.936 178.878 527.305 169.518C520.193 182.428 512.71 192.674 504.853 200.253C496.991 207.836 490.345 211.622 484.921 211.622ZM600.836 139.769C604.948 139.769 608.276 140.33 610.801 141.456C613.328 142.579 614.59 143.98 614.59 145.667C614.59 147.728 614.072 150.064 613.047 152.683C612.013 155.303 611.034 157.453 610.098 159.138C609.721 159.513 609.257 159.559 608.694 159.279C608.134 158.997 607.853 158.485 607.853 157.735C608.415 156.429 608.695 154.556 608.695 152.12C608.695 149.503 607.995 147.348 606.591 145.666C605.187 143.981 603.267 143.141 600.837 143.141C597.655 143.141 595.084 144.122 593.119 146.087C591.152 148.052 590.172 150.814 590.172 154.363C590.172 157.361 590.965 160.215 592.557 162.925C594.2 165.725 595.98 168.442 597.89 171.067C599.898 173.848 601.726 176.754 603.364 179.768C605.048 182.857 605.891 186.364 605.891 190.294C605.891 197.027 603.177 202.266 597.751 206.007C592.321 209.754 585.211 211.622 576.42 211.622C570.054 211.622 565.052 210.594 561.403 208.535C557.752 206.479 555.93 204.236 555.93 201.8C555.93 201.056 556.209 200.023 556.771 198.712C557.332 197.406 558.077 196.004 559.017 194.501C559.982 192.96 561.012 191.462 562.104 190.009C563.225 188.514 564.442 187.3 565.754 186.364C566.315 185.989 566.828 186.079 567.296 186.642C567.761 187.204 567.811 187.765 567.438 188.327C566.315 189.447 565.474 190.62 564.911 191.836C564.35 193.051 564.069 194.692 564.069 196.747C564.069 200.113 565.192 202.878 567.438 205.023C569.684 207.178 572.581 208.253 576.139 208.253C581.001 208.253 584.791 206.896 587.508 204.183C590.216 201.474 591.576 198.149 591.576 194.218C591.576 190.665 590.778 187.343 589.191 184.256C587.605 181.18 585.872 178.183 583.999 175.273C582.141 172.401 580.408 169.451 578.805 166.43C577.227 163.497 576.408 160.217 576.42 156.887C576.42 152.027 578.476 147.954 582.593 144.682C586.705 141.415 592.786 139.769 600.836 139.769Z" fill="#606060"/>
</g>
<defs>
<linearGradient id="paint0_linear_25_8" x1="167.69" y1="169.334" x2="0.262876" y2="169.334" gradientUnits="userSpaceOnUse">
<stop stop-color="#563A74"/>
<stop offset="1" stop-color="#AB73E7"/>
</linearGradient>
<linearGradient id="paint1_linear_25_8" x1="167.69" y1="169.334" x2="0.262876" y2="169.334" gradientUnits="userSpaceOnUse">
<stop stop-color="#563A74"/>
<stop offset="1" stop-color="#AB73E7"/>
</linearGradient>
<linearGradient id="paint2_linear_25_8" x1="167.69" y1="169.334" x2="0.262876" y2="169.334" gradientUnits="userSpaceOnUse">
<stop stop-color="#563A74"/>
<stop offset="1" stop-color="#AB73E7"/>
</linearGradient>
<clipPath id="clip0_25_8">
<rect width="363" height="346" fill="white" transform="translate(252)"/>
</clipPath>
</defs>
</svg>
